<mxfile host="app.diagrams.net" modified="2021-03-23T21:23:36.879Z" agent="5.0 (X11; Linux x86_64) AppleWebKit/537.36 (KHTML, like Gecko) Chrome/87.0.4280.88 Safari/537.36" etag="u3sB1b8hOheEfQ16rpVT" version="14.4.3" type="github">
  <diagram id="R2lEEEUBdFMjLlhIrx00" name="Page-1">
    <mxGraphModel dx="710" dy="1510" grid="1" gridSize="10" guides="1" tooltips="1" connect="1" arrows="1" fold="1" page="1" pageScale="1" pageWidth="850" pageHeight="1100" math="0" shadow="0" extFonts="Permanent Marker^https://fonts.googleapis.com/css?family=Permanent+Marker">
      <root>
        <mxCell id="0" />
        <mxCell id="1" parent="0" />
        <mxCell id="SY6T6C2xdvZ6JYTsEvK5-1" value="" style="edgeStyle=entityRelationEdgeStyle;endArrow=ERzeroToMany;startArrow=ERone;endFill=1;startFill=0;" parent="1" source="SY6T6C2xdvZ6JYTsEvK5-24" target="SY6T6C2xdvZ6JYTsEvK5-7" edge="1">
          <mxGeometry width="100" height="100" relative="1" as="geometry">
            <mxPoint x="340" y="720" as="sourcePoint" />
            <mxPoint x="440" y="620" as="targetPoint" />
          </mxGeometry>
        </mxCell>
        <mxCell id="SY6T6C2xdvZ6JYTsEvK5-2" value="" style="edgeStyle=entityRelationEdgeStyle;endArrow=ERzeroToMany;startArrow=ERone;endFill=1;startFill=0;" parent="1" source="SY6T6C2xdvZ6JYTsEvK5-4" target="SY6T6C2xdvZ6JYTsEvK5-17" edge="1">
          <mxGeometry width="100" height="100" relative="1" as="geometry">
            <mxPoint x="400" y="180" as="sourcePoint" />
            <mxPoint x="460" y="205" as="targetPoint" />
          </mxGeometry>
        </mxCell>
        <mxCell id="SY6T6C2xdvZ6JYTsEvK5-3" value="Orders" style="shape=table;startSize=30;container=1;collapsible=1;childLayout=tableLayout;fixedRows=1;rowLines=0;fontStyle=1;align=center;resizeLast=1;" parent="1" vertex="1">
          <mxGeometry x="600" y="-490" width="250" height="130" as="geometry" />
        </mxCell>
        <mxCell id="SY6T6C2xdvZ6JYTsEvK5-4" value="" style="shape=partialRectangle;collapsible=0;dropTarget=0;pointerEvents=0;fillColor=none;points=[[0,0.5],[1,0.5]];portConstraint=eastwest;top=0;left=0;right=0;bottom=1;" parent="SY6T6C2xdvZ6JYTsEvK5-3" vertex="1">
          <mxGeometry y="30" width="250" height="30" as="geometry" />
        </mxCell>
        <mxCell id="SY6T6C2xdvZ6JYTsEvK5-5" value="PK" style="shape=partialRectangle;overflow=hidden;connectable=0;fillColor=none;top=0;left=0;bottom=0;right=0;fontStyle=1;" parent="SY6T6C2xdvZ6JYTsEvK5-4" vertex="1">
          <mxGeometry width="30" height="30" as="geometry" />
        </mxCell>
        <mxCell id="SY6T6C2xdvZ6JYTsEvK5-6" value="order_id int NOT NULL " style="shape=partialRectangle;overflow=hidden;connectable=0;fillColor=none;top=0;left=0;bottom=0;right=0;align=left;spacingLeft=6;fontStyle=5;" parent="SY6T6C2xdvZ6JYTsEvK5-4" vertex="1">
          <mxGeometry x="30" width="220" height="30" as="geometry" />
        </mxCell>
        <mxCell id="SY6T6C2xdvZ6JYTsEvK5-7" value="" style="shape=partialRectangle;collapsible=0;dropTarget=0;pointerEvents=0;fillColor=none;points=[[0,0.5],[1,0.5]];portConstraint=eastwest;top=0;left=0;right=0;bottom=0;" parent="SY6T6C2xdvZ6JYTsEvK5-3" vertex="1">
          <mxGeometry y="60" width="250" height="30" as="geometry" />
        </mxCell>
        <mxCell id="SY6T6C2xdvZ6JYTsEvK5-8" value="FK1" style="shape=partialRectangle;overflow=hidden;connectable=0;fillColor=none;top=0;left=0;bottom=0;right=0;" parent="SY6T6C2xdvZ6JYTsEvK5-7" vertex="1">
          <mxGeometry width="30" height="30" as="geometry" />
        </mxCell>
        <mxCell id="SY6T6C2xdvZ6JYTsEvK5-9" value="customer_id int NOT NULL" style="shape=partialRectangle;overflow=hidden;connectable=0;fillColor=none;top=0;left=0;bottom=0;right=0;align=left;spacingLeft=6;" parent="SY6T6C2xdvZ6JYTsEvK5-7" vertex="1">
          <mxGeometry x="30" width="220" height="30" as="geometry" />
        </mxCell>
        <mxCell id="SY6T6C2xdvZ6JYTsEvK5-10" value="" style="shape=partialRectangle;collapsible=0;dropTarget=0;pointerEvents=0;fillColor=none;points=[[0,0.5],[1,0.5]];portConstraint=eastwest;top=0;left=0;right=0;bottom=0;" parent="SY6T6C2xdvZ6JYTsEvK5-3" vertex="1">
          <mxGeometry y="90" width="250" height="30" as="geometry" />
        </mxCell>
        <mxCell id="SY6T6C2xdvZ6JYTsEvK5-11" value="" style="shape=partialRectangle;overflow=hidden;connectable=0;fillColor=none;top=0;left=0;bottom=0;right=0;" parent="SY6T6C2xdvZ6JYTsEvK5-10" vertex="1">
          <mxGeometry width="30" height="30" as="geometry" />
        </mxCell>
        <mxCell id="SY6T6C2xdvZ6JYTsEvK5-12" value="order_date date NOT NULL" style="shape=partialRectangle;overflow=hidden;connectable=0;fillColor=none;top=0;left=0;bottom=0;right=0;align=left;spacingLeft=6;" parent="SY6T6C2xdvZ6JYTsEvK5-10" vertex="1">
          <mxGeometry x="30" width="220" height="30" as="geometry" />
        </mxCell>
        <mxCell id="SY6T6C2xdvZ6JYTsEvK5-13" value="Shipments" style="shape=table;startSize=30;container=1;collapsible=1;childLayout=tableLayout;fixedRows=1;rowLines=0;fontStyle=1;align=center;resizeLast=1;" parent="1" vertex="1">
          <mxGeometry x="1040" y="-410" width="250" height="130" as="geometry" />
        </mxCell>
        <mxCell id="SY6T6C2xdvZ6JYTsEvK5-14" value="" style="shape=partialRectangle;collapsible=0;dropTarget=0;pointerEvents=0;fillColor=none;points=[[0,0.5],[1,0.5]];portConstraint=eastwest;top=0;left=0;right=0;bottom=1;" parent="SY6T6C2xdvZ6JYTsEvK5-13" vertex="1">
          <mxGeometry y="30" width="250" height="30" as="geometry" />
        </mxCell>
        <mxCell id="SY6T6C2xdvZ6JYTsEvK5-15" value="PK" style="shape=partialRectangle;overflow=hidden;connectable=0;fillColor=none;top=0;left=0;bottom=0;right=0;fontStyle=1;" parent="SY6T6C2xdvZ6JYTsEvK5-14" vertex="1">
          <mxGeometry width="30" height="30" as="geometry" />
        </mxCell>
        <mxCell id="SY6T6C2xdvZ6JYTsEvK5-16" value="shipment_id int NOT NULL " style="shape=partialRectangle;overflow=hidden;connectable=0;fillColor=none;top=0;left=0;bottom=0;right=0;align=left;spacingLeft=6;fontStyle=5;" parent="SY6T6C2xdvZ6JYTsEvK5-14" vertex="1">
          <mxGeometry x="30" width="220" height="30" as="geometry" />
        </mxCell>
        <mxCell id="SY6T6C2xdvZ6JYTsEvK5-17" value="" style="shape=partialRectangle;collapsible=0;dropTarget=0;pointerEvents=0;fillColor=none;points=[[0,0.5],[1,0.5]];portConstraint=eastwest;top=0;left=0;right=0;bottom=0;" parent="SY6T6C2xdvZ6JYTsEvK5-13" vertex="1">
          <mxGeometry y="60" width="250" height="30" as="geometry" />
        </mxCell>
        <mxCell id="SY6T6C2xdvZ6JYTsEvK5-18" value="FK1" style="shape=partialRectangle;overflow=hidden;connectable=0;fillColor=none;top=0;left=0;bottom=0;right=0;" parent="SY6T6C2xdvZ6JYTsEvK5-17" vertex="1">
          <mxGeometry width="30" height="30" as="geometry" />
        </mxCell>
        <mxCell id="SY6T6C2xdvZ6JYTsEvK5-19" value="order_id int NOT NULL" style="shape=partialRectangle;overflow=hidden;connectable=0;fillColor=none;top=0;left=0;bottom=0;right=0;align=left;spacingLeft=6;" parent="SY6T6C2xdvZ6JYTsEvK5-17" vertex="1">
          <mxGeometry x="30" width="220" height="30" as="geometry" />
        </mxCell>
        <mxCell id="SY6T6C2xdvZ6JYTsEvK5-20" value="" style="shape=partialRectangle;collapsible=0;dropTarget=0;pointerEvents=0;fillColor=none;points=[[0,0.5],[1,0.5]];portConstraint=eastwest;top=0;left=0;right=0;bottom=0;" parent="SY6T6C2xdvZ6JYTsEvK5-13" vertex="1">
          <mxGeometry y="90" width="250" height="30" as="geometry" />
        </mxCell>
        <mxCell id="SY6T6C2xdvZ6JYTsEvK5-21" value="" style="shape=partialRectangle;overflow=hidden;connectable=0;fillColor=none;top=0;left=0;bottom=0;right=0;" parent="SY6T6C2xdvZ6JYTsEvK5-20" vertex="1">
          <mxGeometry width="30" height="30" as="geometry" />
        </mxCell>
        <mxCell id="SY6T6C2xdvZ6JYTsEvK5-22" value="shipment_date date NOT NULL" style="shape=partialRectangle;overflow=hidden;connectable=0;fillColor=none;top=0;left=0;bottom=0;right=0;align=left;spacingLeft=6;" parent="SY6T6C2xdvZ6JYTsEvK5-20" vertex="1">
          <mxGeometry x="30" width="220" height="30" as="geometry" />
        </mxCell>
        <mxCell id="SY6T6C2xdvZ6JYTsEvK5-23" value="Country" style="shape=table;startSize=30;container=1;collapsible=1;childLayout=tableLayout;fixedRows=1;rowLines=0;fontStyle=1;align=center;resizeLast=1;" parent="1" vertex="1">
          <mxGeometry x="90" y="-380" width="310" height="490" as="geometry" />
        </mxCell>
        <mxCell id="SY6T6C2xdvZ6JYTsEvK5-24" value="" style="shape=partialRectangle;collapsible=0;dropTarget=0;pointerEvents=0;fillColor=none;points=[[0,0.5],[1,0.5]];portConstraint=eastwest;top=0;left=0;right=0;bottom=1;" parent="SY6T6C2xdvZ6JYTsEvK5-23" vertex="1">
          <mxGeometry y="30" width="310" height="30" as="geometry" />
        </mxCell>
        <mxCell id="SY6T6C2xdvZ6JYTsEvK5-25" value="PK" style="shape=partialRectangle;overflow=hidden;connectable=0;fillColor=none;top=0;left=0;bottom=0;right=0;fontStyle=1;" parent="SY6T6C2xdvZ6JYTsEvK5-24" vertex="1">
          <mxGeometry width="30" height="30" as="geometry" />
        </mxCell>
        <mxCell id="SY6T6C2xdvZ6JYTsEvK5-26" value="country_code char(50) NOT NULL" style="shape=partialRectangle;overflow=hidden;connectable=0;fillColor=none;top=0;left=0;bottom=0;right=0;align=left;spacingLeft=6;fontStyle=5;" parent="SY6T6C2xdvZ6JYTsEvK5-24" vertex="1">
          <mxGeometry x="30" width="280" height="30" as="geometry" />
        </mxCell>
        <mxCell id="SY6T6C2xdvZ6JYTsEvK5-27" value="" style="shape=partialRectangle;collapsible=0;dropTarget=0;pointerEvents=0;fillColor=none;points=[[0,0.5],[1,0.5]];portConstraint=eastwest;top=0;left=0;right=0;bottom=0;" parent="SY6T6C2xdvZ6JYTsEvK5-23" vertex="1">
          <mxGeometry y="60" width="310" height="30" as="geometry" />
        </mxCell>
        <mxCell id="SY6T6C2xdvZ6JYTsEvK5-28" value="" style="shape=partialRectangle;overflow=hidden;connectable=0;fillColor=none;top=0;left=0;bottom=0;right=0;" parent="SY6T6C2xdvZ6JYTsEvK5-27" vertex="1">
          <mxGeometry width="30" height="30" as="geometry" />
        </mxCell>
        <mxCell id="SY6T6C2xdvZ6JYTsEvK5-29" value="continent char(50) NOT NULL" style="shape=partialRectangle;overflow=hidden;connectable=0;fillColor=none;top=0;left=0;bottom=0;right=0;align=left;spacingLeft=6;" parent="SY6T6C2xdvZ6JYTsEvK5-27" vertex="1">
          <mxGeometry x="30" width="280" height="30" as="geometry" />
        </mxCell>
        <mxCell id="SY6T6C2xdvZ6JYTsEvK5-30" value="" style="shape=partialRectangle;collapsible=0;dropTarget=0;pointerEvents=0;fillColor=none;top=0;left=0;bottom=0;right=0;points=[[0,0.5],[1,0.5]];portConstraint=eastwest;" parent="SY6T6C2xdvZ6JYTsEvK5-23" vertex="1">
          <mxGeometry y="90" width="310" height="30" as="geometry" />
        </mxCell>
        <mxCell id="SY6T6C2xdvZ6JYTsEvK5-31" value="" style="shape=partialRectangle;connectable=0;fillColor=none;top=0;left=0;bottom=0;right=0;editable=1;overflow=hidden;" parent="SY6T6C2xdvZ6JYTsEvK5-30" vertex="1">
          <mxGeometry width="30" height="30" as="geometry" />
        </mxCell>
        <mxCell id="SY6T6C2xdvZ6JYTsEvK5-32" value="name char(50) NOT NULL" style="shape=partialRectangle;connectable=0;fillColor=none;top=0;left=0;bottom=0;right=0;align=left;spacingLeft=6;overflow=hidden;" parent="SY6T6C2xdvZ6JYTsEvK5-30" vertex="1">
          <mxGeometry x="30" width="280" height="30" as="geometry" />
        </mxCell>
        <mxCell id="SY6T6C2xdvZ6JYTsEvK5-33" value="" style="shape=partialRectangle;collapsible=0;dropTarget=0;pointerEvents=0;fillColor=none;top=0;left=0;bottom=0;right=0;points=[[0,0.5],[1,0.5]];portConstraint=eastwest;" parent="SY6T6C2xdvZ6JYTsEvK5-23" vertex="1">
          <mxGeometry y="120" width="310" height="30" as="geometry" />
        </mxCell>
        <mxCell id="SY6T6C2xdvZ6JYTsEvK5-34" value="" style="shape=partialRectangle;connectable=0;fillColor=none;top=0;left=0;bottom=0;right=0;editable=1;overflow=hidden;" parent="SY6T6C2xdvZ6JYTsEvK5-33" vertex="1">
          <mxGeometry width="30" height="30" as="geometry" />
        </mxCell>
        <mxCell id="SY6T6C2xdvZ6JYTsEvK5-35" value="population int NOT NULL" style="shape=partialRectangle;connectable=0;fillColor=none;top=0;left=0;bottom=0;right=0;align=left;spacingLeft=6;overflow=hidden;" parent="SY6T6C2xdvZ6JYTsEvK5-33" vertex="1">
          <mxGeometry x="30" width="280" height="30" as="geometry" />
        </mxCell>
        <mxCell id="SY6T6C2xdvZ6JYTsEvK5-36" value="" style="shape=partialRectangle;collapsible=0;dropTarget=0;pointerEvents=0;fillColor=none;top=0;left=0;bottom=0;right=0;points=[[0,0.5],[1,0.5]];portConstraint=eastwest;" parent="SY6T6C2xdvZ6JYTsEvK5-23" vertex="1">
          <mxGeometry y="150" width="310" height="30" as="geometry" />
        </mxCell>
        <mxCell id="SY6T6C2xdvZ6JYTsEvK5-37" value="" style="shape=partialRectangle;connectable=0;fillColor=none;top=0;left=0;bottom=0;right=0;editable=1;overflow=hidden;" parent="SY6T6C2xdvZ6JYTsEvK5-36" vertex="1">
          <mxGeometry width="30" height="30" as="geometry" />
        </mxCell>
        <mxCell id="SY6T6C2xdvZ6JYTsEvK5-38" value="population_density double NOT NULL" style="shape=partialRectangle;connectable=0;fillColor=none;top=0;left=0;bottom=0;right=0;align=left;spacingLeft=6;overflow=hidden;" parent="SY6T6C2xdvZ6JYTsEvK5-36" vertex="1">
          <mxGeometry x="30" width="280" height="30" as="geometry" />
        </mxCell>
        <mxCell id="SY6T6C2xdvZ6JYTsEvK5-39" value="" style="shape=partialRectangle;collapsible=0;dropTarget=0;pointerEvents=0;fillColor=none;top=0;left=0;bottom=0;right=0;points=[[0,0.5],[1,0.5]];portConstraint=eastwest;" parent="SY6T6C2xdvZ6JYTsEvK5-23" vertex="1">
          <mxGeometry y="180" width="310" height="30" as="geometry" />
        </mxCell>
        <mxCell id="SY6T6C2xdvZ6JYTsEvK5-40" value="" style="shape=partialRectangle;connectable=0;fillColor=none;top=0;left=0;bottom=0;right=0;editable=1;overflow=hidden;" parent="SY6T6C2xdvZ6JYTsEvK5-39" vertex="1">
          <mxGeometry width="30" height="30" as="geometry" />
        </mxCell>
        <mxCell id="SY6T6C2xdvZ6JYTsEvK5-41" value="median_age double  NOT NULL" style="shape=partialRectangle;connectable=0;fillColor=none;top=0;left=0;bottom=0;right=0;align=left;spacingLeft=6;overflow=hidden;" parent="SY6T6C2xdvZ6JYTsEvK5-39" vertex="1">
          <mxGeometry x="30" width="280" height="30" as="geometry" />
        </mxCell>
        <mxCell id="SY6T6C2xdvZ6JYTsEvK5-42" value="" style="shape=partialRectangle;collapsible=0;dropTarget=0;pointerEvents=0;fillColor=none;top=0;left=0;bottom=0;right=0;points=[[0,0.5],[1,0.5]];portConstraint=eastwest;" parent="SY6T6C2xdvZ6JYTsEvK5-23" vertex="1">
          <mxGeometry y="210" width="310" height="30" as="geometry" />
        </mxCell>
        <mxCell id="SY6T6C2xdvZ6JYTsEvK5-43" value="" style="shape=partialRectangle;connectable=0;fillColor=none;top=0;left=0;bottom=0;right=0;editable=1;overflow=hidden;" parent="SY6T6C2xdvZ6JYTsEvK5-42" vertex="1">
          <mxGeometry width="30" height="30" as="geometry" />
        </mxCell>
        <mxCell id="SY6T6C2xdvZ6JYTsEvK5-44" value="aged_65_older double NOT NULL" style="shape=partialRectangle;connectable=0;fillColor=none;top=0;left=0;bottom=0;right=0;align=left;spacingLeft=6;overflow=hidden;" parent="SY6T6C2xdvZ6JYTsEvK5-42" vertex="1">
          <mxGeometry x="30" width="280" height="30" as="geometry" />
        </mxCell>
        <mxCell id="SY6T6C2xdvZ6JYTsEvK5-45" value="" style="shape=partialRectangle;collapsible=0;dropTarget=0;pointerEvents=0;fillColor=none;top=0;left=0;bottom=0;right=0;points=[[0,0.5],[1,0.5]];portConstraint=eastwest;" parent="SY6T6C2xdvZ6JYTsEvK5-23" vertex="1">
          <mxGeometry y="240" width="310" height="30" as="geometry" />
        </mxCell>
        <mxCell id="SY6T6C2xdvZ6JYTsEvK5-46" value="" style="shape=partialRectangle;connectable=0;fillColor=none;top=0;left=0;bottom=0;right=0;editable=1;overflow=hidden;" parent="SY6T6C2xdvZ6JYTsEvK5-45" vertex="1">
          <mxGeometry width="30" height="30" as="geometry" />
        </mxCell>
        <mxCell id="SY6T6C2xdvZ6JYTsEvK5-47" value="aged_70_older double NOT NULL" style="shape=partialRectangle;connectable=0;fillColor=none;top=0;left=0;bottom=0;right=0;align=left;spacingLeft=6;overflow=hidden;" parent="SY6T6C2xdvZ6JYTsEvK5-45" vertex="1">
          <mxGeometry x="30" width="280" height="30" as="geometry" />
        </mxCell>
        <mxCell id="SY6T6C2xdvZ6JYTsEvK5-48" value="" style="shape=partialRectangle;collapsible=0;dropTarget=0;pointerEvents=0;fillColor=none;top=0;left=0;bottom=0;right=0;points=[[0,0.5],[1,0.5]];portConstraint=eastwest;" parent="SY6T6C2xdvZ6JYTsEvK5-23" vertex="1">
          <mxGeometry y="270" width="310" height="30" as="geometry" />
        </mxCell>
        <mxCell id="SY6T6C2xdvZ6JYTsEvK5-49" value="" style="shape=partialRectangle;connectable=0;fillColor=none;top=0;left=0;bottom=0;right=0;editable=1;overflow=hidden;" parent="SY6T6C2xdvZ6JYTsEvK5-48" vertex="1">
          <mxGeometry width="30" height="30" as="geometry" />
        </mxCell>
        <mxCell id="SY6T6C2xdvZ6JYTsEvK5-50" value="life_expectancy double NOT NULL" style="shape=partialRectangle;connectable=0;fillColor=none;top=0;left=0;bottom=0;right=0;align=left;spacingLeft=6;overflow=hidden;" parent="SY6T6C2xdvZ6JYTsEvK5-48" vertex="1">
          <mxGeometry x="30" width="280" height="30" as="geometry" />
        </mxCell>
        <mxCell id="SY6T6C2xdvZ6JYTsEvK5-51" value="" style="shape=partialRectangle;collapsible=0;dropTarget=0;pointerEvents=0;fillColor=none;top=0;left=0;bottom=0;right=0;points=[[0,0.5],[1,0.5]];portConstraint=eastwest;" parent="SY6T6C2xdvZ6JYTsEvK5-23" vertex="1">
          <mxGeometry y="300" width="310" height="30" as="geometry" />
        </mxCell>
        <mxCell id="SY6T6C2xdvZ6JYTsEvK5-52" value="" style="shape=partialRectangle;connectable=0;fillColor=none;top=0;left=0;bottom=0;right=0;editable=1;overflow=hidden;" parent="SY6T6C2xdvZ6JYTsEvK5-51" vertex="1">
          <mxGeometry width="30" height="30" as="geometry" />
        </mxCell>
        <mxCell id="SY6T6C2xdvZ6JYTsEvK5-53" value="male_smokers double NOT NULL" style="shape=partialRectangle;connectable=0;fillColor=none;top=0;left=0;bottom=0;right=0;align=left;spacingLeft=6;overflow=hidden;" parent="SY6T6C2xdvZ6JYTsEvK5-51" vertex="1">
          <mxGeometry x="30" width="280" height="30" as="geometry" />
        </mxCell>
        <mxCell id="SY6T6C2xdvZ6JYTsEvK5-54" value="" style="shape=partialRectangle;collapsible=0;dropTarget=0;pointerEvents=0;fillColor=none;top=0;left=0;bottom=0;right=0;points=[[0,0.5],[1,0.5]];portConstraint=eastwest;" parent="SY6T6C2xdvZ6JYTsEvK5-23" vertex="1">
          <mxGeometry y="330" width="310" height="30" as="geometry" />
        </mxCell>
        <mxCell id="SY6T6C2xdvZ6JYTsEvK5-55" value="" style="shape=partialRectangle;connectable=0;fillColor=none;top=0;left=0;bottom=0;right=0;editable=1;overflow=hidden;" parent="SY6T6C2xdvZ6JYTsEvK5-54" vertex="1">
          <mxGeometry width="30" height="30" as="geometry" />
        </mxCell>
        <mxCell id="SY6T6C2xdvZ6JYTsEvK5-56" value="female_smokers double  NOT NULL" style="shape=partialRectangle;connectable=0;fillColor=none;top=0;left=0;bottom=0;right=0;align=left;spacingLeft=6;overflow=hidden;" parent="SY6T6C2xdvZ6JYTsEvK5-54" vertex="1">
          <mxGeometry x="30" width="280" height="30" as="geometry" />
        </mxCell>
        <mxCell id="SY6T6C2xdvZ6JYTsEvK5-57" value="" style="shape=partialRectangle;collapsible=0;dropTarget=0;pointerEvents=0;fillColor=none;top=0;left=0;bottom=0;right=0;points=[[0,0.5],[1,0.5]];portConstraint=eastwest;" parent="SY6T6C2xdvZ6JYTsEvK5-23" vertex="1">
          <mxGeometry y="360" width="310" height="30" as="geometry" />
        </mxCell>
        <mxCell id="SY6T6C2xdvZ6JYTsEvK5-58" value="" style="shape=partialRectangle;connectable=0;fillColor=none;top=0;left=0;bottom=0;right=0;editable=1;overflow=hidden;" parent="SY6T6C2xdvZ6JYTsEvK5-57" vertex="1">
          <mxGeometry width="30" height="30" as="geometry" />
        </mxCell>
        <mxCell id="SY6T6C2xdvZ6JYTsEvK5-59" value="diabetes_prevalence double NOT NULL" style="shape=partialRectangle;connectable=0;fillColor=none;top=0;left=0;bottom=0;right=0;align=left;spacingLeft=6;overflow=hidden;" parent="SY6T6C2xdvZ6JYTsEvK5-57" vertex="1">
          <mxGeometry x="30" width="280" height="30" as="geometry" />
        </mxCell>
        <mxCell id="SY6T6C2xdvZ6JYTsEvK5-60" value="" style="shape=partialRectangle;collapsible=0;dropTarget=0;pointerEvents=0;fillColor=none;top=0;left=0;bottom=0;right=0;points=[[0,0.5],[1,0.5]];portConstraint=eastwest;" parent="SY6T6C2xdvZ6JYTsEvK5-23" vertex="1">
          <mxGeometry y="390" width="310" height="30" as="geometry" />
        </mxCell>
        <mxCell id="SY6T6C2xdvZ6JYTsEvK5-61" value="" style="shape=partialRectangle;connectable=0;fillColor=none;top=0;left=0;bottom=0;right=0;editable=1;overflow=hidden;" parent="SY6T6C2xdvZ6JYTsEvK5-60" vertex="1">
          <mxGeometry width="30" height="30" as="geometry" />
        </mxCell>
        <mxCell id="SY6T6C2xdvZ6JYTsEvK5-62" value="cardiovasc_death_rate double NOT NULL" style="shape=partialRectangle;connectable=0;fillColor=none;top=0;left=0;bottom=0;right=0;align=left;spacingLeft=6;overflow=hidden;" parent="SY6T6C2xdvZ6JYTsEvK5-60" vertex="1">
          <mxGeometry x="30" width="280" height="30" as="geometry" />
        </mxCell>
        <mxCell id="SY6T6C2xdvZ6JYTsEvK5-63" value="" style="shape=partialRectangle;collapsible=0;dropTarget=0;pointerEvents=0;fillColor=none;top=0;left=0;bottom=0;right=0;points=[[0,0.5],[1,0.5]];portConstraint=eastwest;" parent="SY6T6C2xdvZ6JYTsEvK5-23" vertex="1">
          <mxGeometry y="420" width="310" height="30" as="geometry" />
        </mxCell>
        <mxCell id="SY6T6C2xdvZ6JYTsEvK5-64" value="" style="shape=partialRectangle;connectable=0;fillColor=none;top=0;left=0;bottom=0;right=0;editable=1;overflow=hidden;" parent="SY6T6C2xdvZ6JYTsEvK5-63" vertex="1">
          <mxGeometry width="30" height="30" as="geometry" />
        </mxCell>
        <mxCell id="SY6T6C2xdvZ6JYTsEvK5-65" value="hospital_beds_per_thousand double NOT NULL" style="shape=partialRectangle;connectable=0;fillColor=none;top=0;left=0;bottom=0;right=0;align=left;spacingLeft=6;overflow=hidden;" parent="SY6T6C2xdvZ6JYTsEvK5-63" vertex="1">
          <mxGeometry x="30" width="280" height="30" as="geometry" />
        </mxCell>
        <mxCell id="SY6T6C2xdvZ6JYTsEvK5-66" value="" style="shape=partialRectangle;collapsible=0;dropTarget=0;pointerEvents=0;fillColor=none;top=0;left=0;bottom=0;right=0;points=[[0,0.5],[1,0.5]];portConstraint=eastwest;" parent="SY6T6C2xdvZ6JYTsEvK5-23" vertex="1">
          <mxGeometry y="450" width="310" height="30" as="geometry" />
        </mxCell>
        <mxCell id="SY6T6C2xdvZ6JYTsEvK5-67" value="" style="shape=partialRectangle;connectable=0;fillColor=none;top=0;left=0;bottom=0;right=0;editable=1;overflow=hidden;" parent="SY6T6C2xdvZ6JYTsEvK5-66" vertex="1">
          <mxGeometry width="30" height="30" as="geometry" />
        </mxCell>
        <mxCell id="SY6T6C2xdvZ6JYTsEvK5-68" value="handwashing_facilities double NOT NULL" style="shape=partialRectangle;connectable=0;fillColor=none;top=0;left=0;bottom=0;right=0;align=left;spacingLeft=6;overflow=hidden;" parent="SY6T6C2xdvZ6JYTsEvK5-66" vertex="1">
          <mxGeometry x="30" width="280" height="30" as="geometry" />
        </mxCell>
        <mxCell id="Avo9RZXMjpHJ_VReg2Jq-1" value="Cases" style="shape=table;startSize=30;container=1;collapsible=1;childLayout=tableLayout;fixedRows=1;rowLines=0;fontStyle=1;align=center;resizeLast=1;" parent="1" vertex="1">
          <mxGeometry x="480" y="-215" width="310" height="330" as="geometry" />
        </mxCell>
        <mxCell id="Avo9RZXMjpHJ_VReg2Jq-2" value="" style="shape=partialRectangle;collapsible=0;dropTarget=0;pointerEvents=0;fillColor=none;points=[[0,0.5],[1,0.5]];portConstraint=eastwest;top=0;left=0;right=0;bottom=1;" parent="Avo9RZXMjpHJ_VReg2Jq-1" vertex="1">
          <mxGeometry y="30" width="310" height="30" as="geometry" />
        </mxCell>
        <mxCell id="Avo9RZXMjpHJ_VReg2Jq-3" value="PK" style="shape=partialRectangle;overflow=hidden;connectable=0;fillColor=none;top=0;left=0;bottom=0;right=0;fontStyle=1;" parent="Avo9RZXMjpHJ_VReg2Jq-2" vertex="1">
          <mxGeometry width="30" height="30" as="geometry" />
        </mxCell>
        <mxCell id="Avo9RZXMjpHJ_VReg2Jq-4" value="&#xa;id int NOT NULL AUTO_INCREMENT&#xa;" style="shape=partialRectangle;overflow=hidden;connectable=0;fillColor=none;top=0;left=0;bottom=0;right=0;align=left;spacingLeft=6;fontStyle=5;" parent="Avo9RZXMjpHJ_VReg2Jq-2" vertex="1">
          <mxGeometry x="30" width="280" height="30" as="geometry" />
        </mxCell>
        <mxCell id="8DMsYOVev24uVfOt2lL5-1" value="" style="shape=partialRectangle;collapsible=0;dropTarget=0;pointerEvents=0;fillColor=none;top=0;left=0;bottom=0;right=0;points=[[0,0.5],[1,0.5]];portConstraint=eastwest;" parent="Avo9RZXMjpHJ_VReg2Jq-1" vertex="1">
          <mxGeometry y="60" width="310" height="30" as="geometry" />
        </mxCell>
        <mxCell id="8DMsYOVev24uVfOt2lL5-2" value="FK1" style="shape=partialRectangle;connectable=0;fillColor=none;top=0;left=0;bottom=0;right=0;editable=1;overflow=hidden;" parent="8DMsYOVev24uVfOt2lL5-1" vertex="1">
          <mxGeometry width="30" height="30" as="geometry" />
        </mxCell>
        <mxCell id="8DMsYOVev24uVfOt2lL5-3" value="country_code char(50) NOT NULL" style="shape=partialRectangle;connectable=0;fillColor=none;top=0;left=0;bottom=0;right=0;align=left;spacingLeft=6;overflow=hidden;" parent="8DMsYOVev24uVfOt2lL5-1" vertex="1">
          <mxGeometry x="30" width="280" height="30" as="geometry" />
        </mxCell>
        <mxCell id="Avo9RZXMjpHJ_VReg2Jq-5" value="" style="shape=partialRectangle;collapsible=0;dropTarget=0;pointerEvents=0;fillColor=none;points=[[0,0.5],[1,0.5]];portConstraint=eastwest;top=0;left=0;right=0;bottom=0;" parent="Avo9RZXMjpHJ_VReg2Jq-1" vertex="1">
          <mxGeometry y="90" width="310" height="30" as="geometry" />
        </mxCell>
        <mxCell id="Avo9RZXMjpHJ_VReg2Jq-6" value="" style="shape=partialRectangle;overflow=hidden;connectable=0;fillColor=none;top=0;left=0;bottom=0;right=0;" parent="Avo9RZXMjpHJ_VReg2Jq-5" vertex="1">
          <mxGeometry width="30" height="30" as="geometry" />
        </mxCell>
        <mxCell id="Avo9RZXMjpHJ_VReg2Jq-7" value="total_cases int" style="shape=partialRectangle;overflow=hidden;connectable=0;fillColor=none;top=0;left=0;bottom=0;right=0;align=left;spacingLeft=6;" parent="Avo9RZXMjpHJ_VReg2Jq-5" vertex="1">
          <mxGeometry x="30" width="280" height="30" as="geometry" />
        </mxCell>
        <mxCell id="Avo9RZXMjpHJ_VReg2Jq-8" value="" style="shape=partialRectangle;collapsible=0;dropTarget=0;pointerEvents=0;fillColor=none;top=0;left=0;bottom=0;right=0;points=[[0,0.5],[1,0.5]];portConstraint=eastwest;" parent="Avo9RZXMjpHJ_VReg2Jq-1" vertex="1">
          <mxGeometry y="120" width="310" height="30" as="geometry" />
        </mxCell>
        <mxCell id="Avo9RZXMjpHJ_VReg2Jq-9" value="" style="shape=partialRectangle;connectable=0;fillColor=none;top=0;left=0;bottom=0;right=0;editable=1;overflow=hidden;" parent="Avo9RZXMjpHJ_VReg2Jq-8" vertex="1">
          <mxGeometry width="30" height="30" as="geometry" />
        </mxCell>
        <mxCell id="Avo9RZXMjpHJ_VReg2Jq-10" value="new_cases int&#xa;" style="shape=partialRectangle;connectable=0;fillColor=none;top=0;left=0;bottom=0;right=0;align=left;spacingLeft=6;overflow=hidden;" parent="Avo9RZXMjpHJ_VReg2Jq-8" vertex="1">
          <mxGeometry x="30" width="280" height="30" as="geometry" />
        </mxCell>
        <mxCell id="Avo9RZXMjpHJ_VReg2Jq-11" value="" style="shape=partialRectangle;collapsible=0;dropTarget=0;pointerEvents=0;fillColor=none;top=0;left=0;bottom=0;right=0;points=[[0,0.5],[1,0.5]];portConstraint=eastwest;" parent="Avo9RZXMjpHJ_VReg2Jq-1" vertex="1">
          <mxGeometry y="150" width="310" height="30" as="geometry" />
        </mxCell>
        <mxCell id="Avo9RZXMjpHJ_VReg2Jq-12" value="" style="shape=partialRectangle;connectable=0;fillColor=none;top=0;left=0;bottom=0;right=0;editable=1;overflow=hidden;" parent="Avo9RZXMjpHJ_VReg2Jq-11" vertex="1">
          <mxGeometry width="30" height="30" as="geometry" />
        </mxCell>
        <mxCell id="Avo9RZXMjpHJ_VReg2Jq-13" value="total_deaths int&#xa;" style="shape=partialRectangle;connectable=0;fillColor=none;top=0;left=0;bottom=0;right=0;align=left;spacingLeft=6;overflow=hidden;" parent="Avo9RZXMjpHJ_VReg2Jq-11" vertex="1">
          <mxGeometry x="30" width="280" height="30" as="geometry" />
        </mxCell>
        <mxCell id="Avo9RZXMjpHJ_VReg2Jq-14" value="" style="shape=partialRectangle;collapsible=0;dropTarget=0;pointerEvents=0;fillColor=none;top=0;left=0;bottom=0;right=0;points=[[0,0.5],[1,0.5]];portConstraint=eastwest;" parent="Avo9RZXMjpHJ_VReg2Jq-1" vertex="1">
          <mxGeometry y="180" width="310" height="30" as="geometry" />
        </mxCell>
        <mxCell id="Avo9RZXMjpHJ_VReg2Jq-15" value="" style="shape=partialRectangle;connectable=0;fillColor=none;top=0;left=0;bottom=0;right=0;editable=1;overflow=hidden;" parent="Avo9RZXMjpHJ_VReg2Jq-14" vertex="1">
          <mxGeometry width="30" height="30" as="geometry" />
        </mxCell>
        <mxCell id="Avo9RZXMjpHJ_VReg2Jq-16" value="new_deaths int&#xa;" style="shape=partialRectangle;connectable=0;fillColor=none;top=0;left=0;bottom=0;right=0;align=left;spacingLeft=6;overflow=hidden;" parent="Avo9RZXMjpHJ_VReg2Jq-14" vertex="1">
          <mxGeometry x="30" width="280" height="30" as="geometry" />
        </mxCell>
        <mxCell id="Avo9RZXMjpHJ_VReg2Jq-17" value="" style="shape=partialRectangle;collapsible=0;dropTarget=0;pointerEvents=0;fillColor=none;top=0;left=0;bottom=0;right=0;points=[[0,0.5],[1,0.5]];portConstraint=eastwest;" parent="Avo9RZXMjpHJ_VReg2Jq-1" vertex="1">
          <mxGeometry y="210" width="310" height="30" as="geometry" />
        </mxCell>
        <mxCell id="Avo9RZXMjpHJ_VReg2Jq-18" value="" style="shape=partialRectangle;connectable=0;fillColor=none;top=0;left=0;bottom=0;right=0;editable=1;overflow=hidden;" parent="Avo9RZXMjpHJ_VReg2Jq-17" vertex="1">
          <mxGeometry width="30" height="30" as="geometry" />
        </mxCell>
        <mxCell id="Avo9RZXMjpHJ_VReg2Jq-19" value="icu_patients int" style="shape=partialRectangle;connectable=0;fillColor=none;top=0;left=0;bottom=0;right=0;align=left;spacingLeft=6;overflow=hidden;" parent="Avo9RZXMjpHJ_VReg2Jq-17" vertex="1">
          <mxGeometry x="30" width="280" height="30" as="geometry" />
        </mxCell>
        <mxCell id="Avo9RZXMjpHJ_VReg2Jq-20" value="" style="shape=partialRectangle;collapsible=0;dropTarget=0;pointerEvents=0;fillColor=none;top=0;left=0;bottom=0;right=0;points=[[0,0.5],[1,0.5]];portConstraint=eastwest;" parent="Avo9RZXMjpHJ_VReg2Jq-1" vertex="1">
          <mxGeometry y="240" width="310" height="30" as="geometry" />
        </mxCell>
        <mxCell id="Avo9RZXMjpHJ_VReg2Jq-21" value="" style="shape=partialRectangle;connectable=0;fillColor=none;top=0;left=0;bottom=0;right=0;editable=1;overflow=hidden;" parent="Avo9RZXMjpHJ_VReg2Jq-20" vertex="1">
          <mxGeometry width="30" height="30" as="geometry" />
        </mxCell>
        <mxCell id="Avo9RZXMjpHJ_VReg2Jq-22" value="hosp_patients int" style="shape=partialRectangle;connectable=0;fillColor=none;top=0;left=0;bottom=0;right=0;align=left;spacingLeft=6;overflow=hidden;" parent="Avo9RZXMjpHJ_VReg2Jq-20" vertex="1">
          <mxGeometry x="30" width="280" height="30" as="geometry" />
        </mxCell>
        <mxCell id="Avo9RZXMjpHJ_VReg2Jq-23" value="" style="shape=partialRectangle;collapsible=0;dropTarget=0;pointerEvents=0;fillColor=none;top=0;left=0;bottom=0;right=0;points=[[0,0.5],[1,0.5]];portConstraint=eastwest;" parent="Avo9RZXMjpHJ_VReg2Jq-1" vertex="1">
          <mxGeometry y="270" width="310" height="30" as="geometry" />
        </mxCell>
        <mxCell id="Avo9RZXMjpHJ_VReg2Jq-24" value="" style="shape=partialRectangle;connectable=0;fillColor=none;top=0;left=0;bottom=0;right=0;editable=1;overflow=hidden;" parent="Avo9RZXMjpHJ_VReg2Jq-23" vertex="1">
          <mxGeometry width="30" height="30" as="geometry" />
        </mxCell>
        <mxCell id="Avo9RZXMjpHJ_VReg2Jq-25" value="weekly_icu_admissions int" style="shape=partialRectangle;connectable=0;fillColor=none;top=0;left=0;bottom=0;right=0;align=left;spacingLeft=6;overflow=hidden;" parent="Avo9RZXMjpHJ_VReg2Jq-23" vertex="1">
          <mxGeometry x="30" width="280" height="30" as="geometry" />
        </mxCell>
        <mxCell id="Avo9RZXMjpHJ_VReg2Jq-26" value="" style="shape=partialRectangle;collapsible=0;dropTarget=0;pointerEvents=0;fillColor=none;top=0;left=0;bottom=0;right=0;points=[[0,0.5],[1,0.5]];portConstraint=eastwest;" parent="Avo9RZXMjpHJ_VReg2Jq-1" vertex="1">
          <mxGeometry y="300" width="310" height="30" as="geometry" />
        </mxCell>
        <mxCell id="Avo9RZXMjpHJ_VReg2Jq-27" value="" style="shape=partialRectangle;connectable=0;fillColor=none;top=0;left=0;bottom=0;right=0;editable=1;overflow=hidden;" parent="Avo9RZXMjpHJ_VReg2Jq-26" vertex="1">
          <mxGeometry width="30" height="30" as="geometry" />
        </mxCell>
        <mxCell id="Avo9RZXMjpHJ_VReg2Jq-28" value="weekly_hosp_admissions int" style="shape=partialRectangle;connectable=0;fillColor=none;top=0;left=0;bottom=0;right=0;align=left;spacingLeft=6;overflow=hidden;" parent="Avo9RZXMjpHJ_VReg2Jq-26" vertex="1">
          <mxGeometry x="30" width="280" height="30" as="geometry" />
        </mxCell>
        <mxCell id="6juvHSTaz4ELKmHyLh1n-1" value="Tests" style="shape=table;startSize=30;container=1;collapsible=1;childLayout=tableLayout;fixedRows=1;rowLines=0;fontStyle=1;align=center;resizeLast=1;" parent="1" vertex="1">
          <mxGeometry x="1190" y="-155" width="310" height="210" as="geometry" />
        </mxCell>
        <mxCell id="6juvHSTaz4ELKmHyLh1n-2" value="" style="shape=partialRectangle;collapsible=0;dropTarget=0;pointerEvents=0;fillColor=none;points=[[0,0.5],[1,0.5]];portConstraint=eastwest;top=0;left=0;right=0;bottom=1;" parent="6juvHSTaz4ELKmHyLh1n-1" vertex="1">
          <mxGeometry y="30" width="310" height="30" as="geometry" />
        </mxCell>
        <mxCell id="6juvHSTaz4ELKmHyLh1n-3" value="pk" style="shape=partialRectangle;overflow=hidden;connectable=0;fillColor=none;top=0;left=0;bottom=0;right=0;fontStyle=1;" parent="6juvHSTaz4ELKmHyLh1n-2" vertex="1">
          <mxGeometry width="30" height="30" as="geometry" />
        </mxCell>
        <mxCell id="6juvHSTaz4ELKmHyLh1n-4" value="id int NOT NULL AUTO_INCREMENT" style="shape=partialRectangle;overflow=hidden;connectable=0;fillColor=none;top=0;left=0;bottom=0;right=0;align=left;spacingLeft=6;fontStyle=5;" parent="6juvHSTaz4ELKmHyLh1n-2" vertex="1">
          <mxGeometry x="30" width="280" height="30" as="geometry" />
        </mxCell>
        <mxCell id="6juvHSTaz4ELKmHyLh1n-5" value="" style="shape=partialRectangle;collapsible=0;dropTarget=0;pointerEvents=0;fillColor=none;top=0;left=0;bottom=0;right=0;points=[[0,0.5],[1,0.5]];portConstraint=eastwest;" parent="6juvHSTaz4ELKmHyLh1n-1" vertex="1">
          <mxGeometry y="60" width="310" height="30" as="geometry" />
        </mxCell>
        <mxCell id="6juvHSTaz4ELKmHyLh1n-6" value="FK1" style="shape=partialRectangle;connectable=0;fillColor=none;top=0;left=0;bottom=0;right=0;editable=1;overflow=hidden;" parent="6juvHSTaz4ELKmHyLh1n-5" vertex="1">
          <mxGeometry width="30" height="30" as="geometry" />
        </mxCell>
        <mxCell id="6juvHSTaz4ELKmHyLh1n-7" value="country_code char(50) NOT NULL" style="shape=partialRectangle;connectable=0;fillColor=none;top=0;left=0;bottom=0;right=0;align=left;spacingLeft=6;overflow=hidden;" parent="6juvHSTaz4ELKmHyLh1n-5" vertex="1">
          <mxGeometry x="30" width="280" height="30" as="geometry" />
        </mxCell>
        <mxCell id="6juvHSTaz4ELKmHyLh1n-8" value="" style="shape=partialRectangle;collapsible=0;dropTarget=0;pointerEvents=0;fillColor=none;points=[[0,0.5],[1,0.5]];portConstraint=eastwest;top=0;left=0;right=0;bottom=0;" parent="6juvHSTaz4ELKmHyLh1n-1" vertex="1">
          <mxGeometry y="90" width="310" height="30" as="geometry" />
        </mxCell>
        <mxCell id="6juvHSTaz4ELKmHyLh1n-9" value="" style="shape=partialRectangle;overflow=hidden;connectable=0;fillColor=none;top=0;left=0;bottom=0;right=0;" parent="6juvHSTaz4ELKmHyLh1n-8" vertex="1">
          <mxGeometry width="30" height="30" as="geometry" />
        </mxCell>
        <mxCell id="6juvHSTaz4ELKmHyLh1n-10" value="total_tests int" style="shape=partialRectangle;overflow=hidden;connectable=0;fillColor=none;top=0;left=0;bottom=0;right=0;align=left;spacingLeft=6;" parent="6juvHSTaz4ELKmHyLh1n-8" vertex="1">
          <mxGeometry x="30" width="280" height="30" as="geometry" />
        </mxCell>
        <mxCell id="6juvHSTaz4ELKmHyLh1n-11" value="" style="shape=partialRectangle;collapsible=0;dropTarget=0;pointerEvents=0;fillColor=none;top=0;left=0;bottom=0;right=0;points=[[0,0.5],[1,0.5]];portConstraint=eastwest;" parent="6juvHSTaz4ELKmHyLh1n-1" vertex="1">
          <mxGeometry y="120" width="310" height="30" as="geometry" />
        </mxCell>
        <mxCell id="6juvHSTaz4ELKmHyLh1n-12" value="" style="shape=partialRectangle;connectable=0;fillColor=none;top=0;left=0;bottom=0;right=0;editable=1;overflow=hidden;" parent="6juvHSTaz4ELKmHyLh1n-11" vertex="1">
          <mxGeometry width="30" height="30" as="geometry" />
        </mxCell>
        <mxCell id="6juvHSTaz4ELKmHyLh1n-13" value="new_tests int" style="shape=partialRectangle;connectable=0;fillColor=none;top=0;left=0;bottom=0;right=0;align=left;spacingLeft=6;overflow=hidden;" parent="6juvHSTaz4ELKmHyLh1n-11" vertex="1">
          <mxGeometry x="30" width="280" height="30" as="geometry" />
        </mxCell>
        <mxCell id="6juvHSTaz4ELKmHyLh1n-14" value="" style="shape=partialRectangle;collapsible=0;dropTarget=0;pointerEvents=0;fillColor=none;top=0;left=0;bottom=0;right=0;points=[[0,0.5],[1,0.5]];portConstraint=eastwest;" parent="6juvHSTaz4ELKmHyLh1n-1" vertex="1">
          <mxGeometry y="150" width="310" height="30" as="geometry" />
        </mxCell>
        <mxCell id="6juvHSTaz4ELKmHyLh1n-15" value="" style="shape=partialRectangle;connectable=0;fillColor=none;top=0;left=0;bottom=0;right=0;editable=1;overflow=hidden;" parent="6juvHSTaz4ELKmHyLh1n-14" vertex="1">
          <mxGeometry width="30" height="30" as="geometry" />
        </mxCell>
        <mxCell id="6juvHSTaz4ELKmHyLh1n-16" value="positive_rate double" style="shape=partialRectangle;connectable=0;fillColor=none;top=0;left=0;bottom=0;right=0;align=left;spacingLeft=6;overflow=hidden;" parent="6juvHSTaz4ELKmHyLh1n-14" vertex="1">
          <mxGeometry x="30" width="280" height="30" as="geometry" />
        </mxCell>
        <mxCell id="l6TBghmeu1Rl9ifIMnc_-18" value="" style="shape=partialRectangle;collapsible=0;dropTarget=0;pointerEvents=0;fillColor=none;top=0;left=0;bottom=0;right=0;points=[[0,0.5],[1,0.5]];portConstraint=eastwest;" vertex="1" parent="6juvHSTaz4ELKmHyLh1n-1">
          <mxGeometry y="180" width="310" height="30" as="geometry" />
        </mxCell>
        <mxCell id="l6TBghmeu1Rl9ifIMnc_-19" value="" style="shape=partialRectangle;connectable=0;fillColor=none;top=0;left=0;bottom=0;right=0;editable=1;overflow=hidden;" vertex="1" parent="l6TBghmeu1Rl9ifIMnc_-18">
          <mxGeometry width="30" height="30" as="geometry" />
        </mxCell>
        <mxCell id="l6TBghmeu1Rl9ifIMnc_-20" value="date DATE" style="shape=partialRectangle;connectable=0;fillColor=none;top=0;left=0;bottom=0;right=0;align=left;spacingLeft=6;overflow=hidden;" vertex="1" parent="l6TBghmeu1Rl9ifIMnc_-18">
          <mxGeometry x="30" width="280" height="30" as="geometry" />
        </mxCell>
        <mxCell id="l6TBghmeu1Rl9ifIMnc_-1" value="Vaccinations" style="shape=table;startSize=30;container=1;collapsible=1;childLayout=tableLayout;fixedRows=1;rowLines=0;fontStyle=1;align=center;resizeLast=1;" vertex="1" parent="1">
          <mxGeometry x="820" y="150" width="310" height="180" as="geometry" />
        </mxCell>
        <mxCell id="l6TBghmeu1Rl9ifIMnc_-2" value="" style="shape=partialRectangle;collapsible=0;dropTarget=0;pointerEvents=0;fillColor=none;points=[[0,0.5],[1,0.5]];portConstraint=eastwest;top=0;left=0;right=0;bottom=1;" vertex="1" parent="l6TBghmeu1Rl9ifIMnc_-1">
          <mxGeometry y="30" width="310" height="30" as="geometry" />
        </mxCell>
        <mxCell id="l6TBghmeu1Rl9ifIMnc_-3" value="pk" style="shape=partialRectangle;overflow=hidden;connectable=0;fillColor=none;top=0;left=0;bottom=0;right=0;fontStyle=1;" vertex="1" parent="l6TBghmeu1Rl9ifIMnc_-2">
          <mxGeometry width="30" height="30" as="geometry" />
        </mxCell>
        <mxCell id="l6TBghmeu1Rl9ifIMnc_-4" value="id int NOT NULL AUTO_INCREMENT" style="shape=partialRectangle;overflow=hidden;connectable=0;fillColor=none;top=0;left=0;bottom=0;right=0;align=left;spacingLeft=6;fontStyle=5;" vertex="1" parent="l6TBghmeu1Rl9ifIMnc_-2">
          <mxGeometry x="30" width="280" height="30" as="geometry" />
        </mxCell>
        <mxCell id="l6TBghmeu1Rl9ifIMnc_-5" value="" style="shape=partialRectangle;collapsible=0;dropTarget=0;pointerEvents=0;fillColor=none;top=0;left=0;bottom=0;right=0;points=[[0,0.5],[1,0.5]];portConstraint=eastwest;" vertex="1" parent="l6TBghmeu1Rl9ifIMnc_-1">
          <mxGeometry y="60" width="310" height="30" as="geometry" />
        </mxCell>
        <mxCell id="l6TBghmeu1Rl9ifIMnc_-6" value="FK1" style="shape=partialRectangle;connectable=0;fillColor=none;top=0;left=0;bottom=0;right=0;editable=1;overflow=hidden;" vertex="1" parent="l6TBghmeu1Rl9ifIMnc_-5">
          <mxGeometry width="30" height="30" as="geometry" />
        </mxCell>
        <mxCell id="l6TBghmeu1Rl9ifIMnc_-7" value="country_code char(50) NOT NULL" style="shape=partialRectangle;connectable=0;fillColor=none;top=0;left=0;bottom=0;right=0;align=left;spacingLeft=6;overflow=hidden;" vertex="1" parent="l6TBghmeu1Rl9ifIMnc_-5">
          <mxGeometry x="30" width="280" height="30" as="geometry" />
        </mxCell>
        <mxCell id="l6TBghmeu1Rl9ifIMnc_-8" value="" style="shape=partialRectangle;collapsible=0;dropTarget=0;pointerEvents=0;fillColor=none;points=[[0,0.5],[1,0.5]];portConstraint=eastwest;top=0;left=0;right=0;bottom=0;" vertex="1" parent="l6TBghmeu1Rl9ifIMnc_-1">
          <mxGeometry y="90" width="310" height="30" as="geometry" />
        </mxCell>
        <mxCell id="l6TBghmeu1Rl9ifIMnc_-9" value="" style="shape=partialRectangle;overflow=hidden;connectable=0;fillColor=none;top=0;left=0;bottom=0;right=0;" vertex="1" parent="l6TBghmeu1Rl9ifIMnc_-8">
          <mxGeometry width="30" height="30" as="geometry" />
        </mxCell>
        <mxCell id="l6TBghmeu1Rl9ifIMnc_-10" value="total_vaccinations int" style="shape=partialRectangle;overflow=hidden;connectable=0;fillColor=none;top=0;left=0;bottom=0;right=0;align=left;spacingLeft=6;" vertex="1" parent="l6TBghmeu1Rl9ifIMnc_-8">
          <mxGeometry x="30" width="280" height="30" as="geometry" />
        </mxCell>
        <mxCell id="l6TBghmeu1Rl9ifIMnc_-11" value="" style="shape=partialRectangle;collapsible=0;dropTarget=0;pointerEvents=0;fillColor=none;top=0;left=0;bottom=0;right=0;points=[[0,0.5],[1,0.5]];portConstraint=eastwest;" vertex="1" parent="l6TBghmeu1Rl9ifIMnc_-1">
          <mxGeometry y="120" width="310" height="30" as="geometry" />
        </mxCell>
        <mxCell id="l6TBghmeu1Rl9ifIMnc_-12" value="" style="shape=partialRectangle;connectable=0;fillColor=none;top=0;left=0;bottom=0;right=0;editable=1;overflow=hidden;" vertex="1" parent="l6TBghmeu1Rl9ifIMnc_-11">
          <mxGeometry width="30" height="30" as="geometry" />
        </mxCell>
        <mxCell id="l6TBghmeu1Rl9ifIMnc_-13" value="new_vaccinations int" style="shape=partialRectangle;connectable=0;fillColor=none;top=0;left=0;bottom=0;right=0;align=left;spacingLeft=6;overflow=hidden;" vertex="1" parent="l6TBghmeu1Rl9ifIMnc_-11">
          <mxGeometry x="30" width="280" height="30" as="geometry" />
        </mxCell>
        <mxCell id="l6TBghmeu1Rl9ifIMnc_-14" value="" style="shape=partialRectangle;collapsible=0;dropTarget=0;pointerEvents=0;fillColor=none;top=0;left=0;bottom=0;right=0;points=[[0,0.5],[1,0.5]];portConstraint=eastwest;" vertex="1" parent="l6TBghmeu1Rl9ifIMnc_-1">
          <mxGeometry y="150" width="310" height="30" as="geometry" />
        </mxCell>
        <mxCell id="l6TBghmeu1Rl9ifIMnc_-15" value="" style="shape=partialRectangle;connectable=0;fillColor=none;top=0;left=0;bottom=0;right=0;editable=1;overflow=hidden;" vertex="1" parent="l6TBghmeu1Rl9ifIMnc_-14">
          <mxGeometry width="30" height="30" as="geometry" />
        </mxCell>
        <mxCell id="l6TBghmeu1Rl9ifIMnc_-16" value="date DATE" style="shape=partialRectangle;connectable=0;fillColor=none;top=0;left=0;bottom=0;right=0;align=left;spacingLeft=6;overflow=hidden;" vertex="1" parent="l6TBghmeu1Rl9ifIMnc_-14">
          <mxGeometry x="30" width="280" height="30" as="geometry" />
        </mxCell>
        <mxCell id="l6TBghmeu1Rl9ifIMnc_-21" value="vaccines" style="shape=table;startSize=30;container=1;collapsible=1;childLayout=tableLayout;fixedRows=1;rowLines=0;fontStyle=1;align=center;resizeLast=1;" vertex="1" parent="1">
          <mxGeometry x="1250" y="140" width="310" height="180" as="geometry" />
        </mxCell>
        <mxCell id="l6TBghmeu1Rl9ifIMnc_-22" value="" style="shape=partialRectangle;collapsible=0;dropTarget=0;pointerEvents=0;fillColor=none;points=[[0,0.5],[1,0.5]];portConstraint=eastwest;top=0;left=0;right=0;bottom=1;" vertex="1" parent="l6TBghmeu1Rl9ifIMnc_-21">
          <mxGeometry y="30" width="310" height="30" as="geometry" />
        </mxCell>
        <mxCell id="l6TBghmeu1Rl9ifIMnc_-23" value="pk" style="shape=partialRectangle;overflow=hidden;connectable=0;fillColor=none;top=0;left=0;bottom=0;right=0;fontStyle=1;" vertex="1" parent="l6TBghmeu1Rl9ifIMnc_-22">
          <mxGeometry width="30" height="30" as="geometry" />
        </mxCell>
        <mxCell id="l6TBghmeu1Rl9ifIMnc_-24" value="id int NOT NULL AUTO_INCREMENT" style="shape=partialRectangle;overflow=hidden;connectable=0;fillColor=none;top=0;left=0;bottom=0;right=0;align=left;spacingLeft=6;fontStyle=5;" vertex="1" parent="l6TBghmeu1Rl9ifIMnc_-22">
          <mxGeometry x="30" width="280" height="30" as="geometry" />
        </mxCell>
        <mxCell id="l6TBghmeu1Rl9ifIMnc_-25" value="" style="shape=partialRectangle;collapsible=0;dropTarget=0;pointerEvents=0;fillColor=none;top=0;left=0;bottom=0;right=0;points=[[0,0.5],[1,0.5]];portConstraint=eastwest;" vertex="1" parent="l6TBghmeu1Rl9ifIMnc_-21">
          <mxGeometry y="60" width="310" height="30" as="geometry" />
        </mxCell>
        <mxCell id="l6TBghmeu1Rl9ifIMnc_-26" value="FK1" style="shape=partialRectangle;connectable=0;fillColor=none;top=0;left=0;bottom=0;right=0;editable=1;overflow=hidden;" vertex="1" parent="l6TBghmeu1Rl9ifIMnc_-25">
          <mxGeometry width="30" height="30" as="geometry" />
        </mxCell>
        <mxCell id="l6TBghmeu1Rl9ifIMnc_-27" value="country_code char(50) NOT NULL" style="shape=partialRectangle;connectable=0;fillColor=none;top=0;left=0;bottom=0;right=0;align=left;spacingLeft=6;overflow=hidden;" vertex="1" parent="l6TBghmeu1Rl9ifIMnc_-25">
          <mxGeometry x="30" width="280" height="30" as="geometry" />
        </mxCell>
        <mxCell id="l6TBghmeu1Rl9ifIMnc_-31" value="" style="shape=partialRectangle;collapsible=0;dropTarget=0;pointerEvents=0;fillColor=none;top=0;left=0;bottom=0;right=0;points=[[0,0.5],[1,0.5]];portConstraint=eastwest;" vertex="1" parent="l6TBghmeu1Rl9ifIMnc_-21">
          <mxGeometry y="90" width="310" height="30" as="geometry" />
        </mxCell>
        <mxCell id="l6TBghmeu1Rl9ifIMnc_-32" value="" style="shape=partialRectangle;connectable=0;fillColor=none;top=0;left=0;bottom=0;right=0;editable=1;overflow=hidden;" vertex="1" parent="l6TBghmeu1Rl9ifIMnc_-31">
          <mxGeometry width="30" height="30" as="geometry" />
        </mxCell>
        <mxCell id="l6TBghmeu1Rl9ifIMnc_-33" value="vaccine_name char(50)" style="shape=partialRectangle;connectable=0;fillColor=none;top=0;left=0;bottom=0;right=0;align=left;spacingLeft=6;overflow=hidden;" vertex="1" parent="l6TBghmeu1Rl9ifIMnc_-31">
          <mxGeometry x="30" width="280" height="30" as="geometry" />
        </mxCell>
        <mxCell id="l6TBghmeu1Rl9ifIMnc_-34" value="" style="shape=partialRectangle;collapsible=0;dropTarget=0;pointerEvents=0;fillColor=none;top=0;left=0;bottom=0;right=0;points=[[0,0.5],[1,0.5]];portConstraint=eastwest;" vertex="1" parent="l6TBghmeu1Rl9ifIMnc_-21">
          <mxGeometry y="120" width="310" height="30" as="geometry" />
        </mxCell>
        <mxCell id="l6TBghmeu1Rl9ifIMnc_-35" value="" style="shape=partialRectangle;connectable=0;fillColor=none;top=0;left=0;bottom=0;right=0;editable=1;overflow=hidden;" vertex="1" parent="l6TBghmeu1Rl9ifIMnc_-34">
          <mxGeometry width="30" height="30" as="geometry" />
        </mxCell>
        <mxCell id="l6TBghmeu1Rl9ifIMnc_-36" value="last_observation_date DATE" style="shape=partialRectangle;connectable=0;fillColor=none;top=0;left=0;bottom=0;right=0;align=left;spacingLeft=6;overflow=hidden;" vertex="1" parent="l6TBghmeu1Rl9ifIMnc_-34">
          <mxGeometry x="30" width="280" height="30" as="geometry" />
        </mxCell>
        <mxCell id="l6TBghmeu1Rl9ifIMnc_-28" value="" style="shape=partialRectangle;collapsible=0;dropTarget=0;pointerEvents=0;fillColor=none;points=[[0,0.5],[1,0.5]];portConstraint=eastwest;top=0;left=0;right=0;bottom=0;" vertex="1" parent="l6TBghmeu1Rl9ifIMnc_-21">
          <mxGeometry y="150" width="310" height="30" as="geometry" />
        </mxCell>
        <mxCell id="l6TBghmeu1Rl9ifIMnc_-29" value="" style="shape=partialRectangle;overflow=hidden;connectable=0;fillColor=none;top=0;left=0;bottom=0;right=0;" vertex="1" parent="l6TBghmeu1Rl9ifIMnc_-28">
          <mxGeometry width="30" height="30" as="geometry" />
        </mxCell>
        <mxCell id="l6TBghmeu1Rl9ifIMnc_-30" value="" style="shape=partialRectangle;overflow=hidden;connectable=0;fillColor=none;top=0;left=0;bottom=0;right=0;align=left;spacingLeft=6;" vertex="1" parent="l6TBghmeu1Rl9ifIMnc_-28">
          <mxGeometry x="30" width="280" height="30" as="geometry" />
        </mxCell>
        <mxCell id="l6TBghmeu1Rl9ifIMnc_-37" value="vaccines" style="shape=table;startSize=30;container=1;collapsible=1;childLayout=tableLayout;fixedRows=1;rowLines=0;fontStyle=1;align=center;resizeLast=1;" vertex="1" parent="1">
          <mxGeometry x="1350" y="410" width="310" height="170" as="geometry" />
        </mxCell>
        <mxCell id="l6TBghmeu1Rl9ifIMnc_-38" value="" style="shape=partialRectangle;collapsible=0;dropTarget=0;pointerEvents=0;fillColor=none;points=[[0,0.5],[1,0.5]];portConstraint=eastwest;top=0;left=0;right=0;bottom=1;" vertex="1" parent="l6TBghmeu1Rl9ifIMnc_-37">
          <mxGeometry y="30" width="310" height="30" as="geometry" />
        </mxCell>
        <mxCell id="l6TBghmeu1Rl9ifIMnc_-39" value="pk" style="shape=partialRectangle;overflow=hidden;connectable=0;fillColor=none;top=0;left=0;bottom=0;right=0;fontStyle=1;" vertex="1" parent="l6TBghmeu1Rl9ifIMnc_-38">
          <mxGeometry width="30" height="30" as="geometry" />
        </mxCell>
        <mxCell id="l6TBghmeu1Rl9ifIMnc_-40" value="vaccine int NOT NULL" style="shape=partialRectangle;overflow=hidden;connectable=0;fillColor=none;top=0;left=0;bottom=0;right=0;align=left;spacingLeft=6;fontStyle=5;" vertex="1" parent="l6TBghmeu1Rl9ifIMnc_-38">
          <mxGeometry x="30" width="280" height="30" as="geometry" />
        </mxCell>
        <mxCell id="l6TBghmeu1Rl9ifIMnc_-44" value="" style="shape=partialRectangle;collapsible=0;dropTarget=0;pointerEvents=0;fillColor=none;top=0;left=0;bottom=0;right=0;points=[[0,0.5],[1,0.5]];portConstraint=eastwest;" vertex="1" parent="l6TBghmeu1Rl9ifIMnc_-37">
          <mxGeometry y="60" width="310" height="30" as="geometry" />
        </mxCell>
        <mxCell id="l6TBghmeu1Rl9ifIMnc_-45" value="" style="shape=partialRectangle;connectable=0;fillColor=none;top=0;left=0;bottom=0;right=0;editable=1;overflow=hidden;" vertex="1" parent="l6TBghmeu1Rl9ifIMnc_-44">
          <mxGeometry width="30" height="30" as="geometry" />
        </mxCell>
        <mxCell id="l6TBghmeu1Rl9ifIMnc_-46" value="vaccine_name char(50)" style="shape=partialRectangle;connectable=0;fillColor=none;top=0;left=0;bottom=0;right=0;align=left;spacingLeft=6;overflow=hidden;" vertex="1" parent="l6TBghmeu1Rl9ifIMnc_-44">
          <mxGeometry x="30" width="280" height="30" as="geometry" />
        </mxCell>
        <mxCell id="l6TBghmeu1Rl9ifIMnc_-47" value="" style="shape=partialRectangle;collapsible=0;dropTarget=0;pointerEvents=0;fillColor=none;top=0;left=0;bottom=0;right=0;points=[[0,0.5],[1,0.5]];portConstraint=eastwest;" vertex="1" parent="l6TBghmeu1Rl9ifIMnc_-37">
          <mxGeometry y="90" width="310" height="30" as="geometry" />
        </mxCell>
        <mxCell id="l6TBghmeu1Rl9ifIMnc_-48" value="" style="shape=partialRectangle;connectable=0;fillColor=none;top=0;left=0;bottom=0;right=0;editable=1;overflow=hidden;" vertex="1" parent="l6TBghmeu1Rl9ifIMnc_-47">
          <mxGeometry width="30" height="30" as="geometry" />
        </mxCell>
        <mxCell id="l6TBghmeu1Rl9ifIMnc_-49" value="" style="shape=partialRectangle;connectable=0;fillColor=none;top=0;left=0;bottom=0;right=0;align=left;spacingLeft=6;overflow=hidden;" vertex="1" parent="l6TBghmeu1Rl9ifIMnc_-47">
          <mxGeometry x="30" width="280" height="30" as="geometry" />
        </mxCell>
        <mxCell id="l6TBghmeu1Rl9ifIMnc_-50" value="" style="shape=partialRectangle;collapsible=0;dropTarget=0;pointerEvents=0;fillColor=none;points=[[0,0.5],[1,0.5]];portConstraint=eastwest;top=0;left=0;right=0;bottom=0;" vertex="1" parent="l6TBghmeu1Rl9ifIMnc_-37">
          <mxGeometry y="120" width="310" height="30" as="geometry" />
        </mxCell>
        <mxCell id="l6TBghmeu1Rl9ifIMnc_-51" value="" style="shape=partialRectangle;overflow=hidden;connectable=0;fillColor=none;top=0;left=0;bottom=0;right=0;" vertex="1" parent="l6TBghmeu1Rl9ifIMnc_-50">
          <mxGeometry width="30" height="30" as="geometry" />
        </mxCell>
        <mxCell id="l6TBghmeu1Rl9ifIMnc_-52" value="" style="shape=partialRectangle;overflow=hidden;connectable=0;fillColor=none;top=0;left=0;bottom=0;right=0;align=left;spacingLeft=6;" vertex="1" parent="l6TBghmeu1Rl9ifIMnc_-50">
          <mxGeometry x="30" width="280" height="30" as="geometry" />
        </mxCell>
        <mxCell id="l6TBghmeu1Rl9ifIMnc_-41" value="" style="shape=partialRectangle;collapsible=0;dropTarget=0;pointerEvents=0;fillColor=none;top=0;left=0;bottom=0;right=0;points=[[0,0.5],[1,0.5]];portConstraint=eastwest;" vertex="1" parent="l6TBghmeu1Rl9ifIMnc_-37">
          <mxGeometry y="150" width="310" height="20" as="geometry" />
        </mxCell>
        <mxCell id="l6TBghmeu1Rl9ifIMnc_-42" value="" style="shape=partialRectangle;connectable=0;fillColor=none;top=0;left=0;bottom=0;right=0;editable=1;overflow=hidden;" vertex="1" parent="l6TBghmeu1Rl9ifIMnc_-41">
          <mxGeometry width="30" height="20" as="geometry" />
        </mxCell>
        <mxCell id="l6TBghmeu1Rl9ifIMnc_-43" value="" style="shape=partialRectangle;connectable=0;fillColor=none;top=0;left=0;bottom=0;right=0;align=left;spacingLeft=6;overflow=hidden;" vertex="1" parent="l6TBghmeu1Rl9ifIMnc_-41">
          <mxGeometry x="30" width="280" height="20" as="geometry" />
        </mxCell>
      </root>
    </mxGraphModel>
  </diagram>
</mxfile>
